<svg width="650" height="650" xmlns="http://www.w3.org/2000/svg" xmlns:xlink="http://www.w3.org/1999/xlink" xml:space="preserve" overflow="hidden"><defs><clipPath id="clip0"><rect x="1016" y="1087" width="650" height="650"/></clipPath></defs><g clip-path="url(#clip0)" transform="translate(-1016 -1087)"><path d="M1016 1412C1016 1232.51 1161.51 1087 1341 1087 1520.49 1087 1666 1232.51 1666 1412 1666 1591.49 1520.49 1737 1341 1737 1161.51 1737 1016 1591.49 1016 1412Z" fill="#DAA100" fill-rule="evenodd"/><g><g><g><path d="M205.574 38.8333 260.426 38.8333 255.863 314.987 210.137 314.987 205.574 38.8333Z" stroke="#FFFFFF" stroke-width="4.85416" fill="#FFFFFF" transform="matrix(1 0 0 1 1108 1179)"/><path d="M271.833 383.479C271.833 404.926 254.447 422.312 233 422.312 211.553 422.312 194.167 404.926 194.167 383.479 194.167 362.032 211.553 344.646 233 344.646 254.447 344.646 271.833 362.032 271.833 383.479Z" stroke="#FFFFFF" stroke-width="4.85416" fill="#FFFFFF" transform="matrix(1 0 0 1 1108 1179)"/></g></g></g></g></svg>