<svg width="649" height="650" xmlns="http://www.w3.org/2000/svg" xmlns:xlink="http://www.w3.org/1999/xlink" xml:space="preserve" overflow="hidden"><defs><clipPath id="clip0"><rect x="2499" y="1087" width="649" height="650"/></clipPath></defs><g clip-path="url(#clip0)" transform="translate(-2499 -1087)"><path d="M2499 1412C2499 1232.51 2644.28 1087 2823.5 1087 3002.72 1087 3148 1232.51 3148 1412 3148 1591.49 3002.72 1737 2823.5 1737 2644.28 1737 2499 1591.49 2499 1412Z" fill="#AEAEAE" fill-rule="evenodd"/><path d="M2606 1412.5C2606 1384.61 2628.61 1362 2656.5 1362 2684.39 1362 2707 1384.61 2707 1412.5 2707 1440.39 2684.39 1463 2656.5 1463 2628.61 1463 2606 1440.39 2606 1412.5Z" fill="#FFFFFF" fill-rule="evenodd"/><path d="M2773 1412.5C2773 1384.61 2795.61 1362 2823.5 1362 2851.39 1362 2874 1384.61 2874 1412.5 2874 1440.39 2851.39 1463 2823.5 1463 2795.61 1463 2773 1440.39 2773 1412.5Z" fill="#FFFFFF" fill-rule="evenodd"/><path d="M2940 1412.5C2940 1384.61 2962.61 1362 2990.5 1362 3018.39 1362 3041 1384.61 3041 1412.5 3041 1440.39 3018.39 1463 2990.5 1463 2962.61 1463 2940 1440.39 2940 1412.5Z" fill="#FFFFFF" fill-rule="evenodd"/></g></svg>