<svg width="650" height="650" xmlns="http://www.w3.org/2000/svg" xmlns:xlink="http://www.w3.org/1999/xlink" xml:space="preserve" overflow="hidden"><defs><clipPath id="clip0"><rect x="1757" y="1087" width="650" height="650"/></clipPath></defs><g clip-path="url(#clip0)" transform="translate(-1757 -1087)"><path d="M1757 1412C1757 1232.51 1902.51 1087 2082 1087 2261.49 1087 2407 1232.51 2407 1412 2407 1591.49 2261.49 1737 2082 1737 1902.51 1737 1757 1591.49 1757 1412Z" fill="#A63434" fill-rule="evenodd"/><g><g><g><path d="M404.837 102.423 363.577 61.1625 233 191.739 102.423 61.1625 61.1625 102.423 191.739 233 61.1625 363.577 102.423 404.837 233 274.26 363.577 404.837 404.837 363.577 274.26 233Z" fill="#FFFFFF" transform="matrix(1 0 0 1 1849 1179)"/></g></g></g></g></svg>